<svg id="Layer_1" data-name="Layer 1" xmlns="http://www.w3.org/2000/svg" viewBox="0 0 4491.4 1474.87"><path d="M246.06,2013.29H640.73c2.86.4,4.3,2,4.3,4.9v870.49c0,3.28-1.44,4.92-4.3,4.92H554.05c-3.28,0-4.91-1.64-4.91-4.92v-782H246.06q-4.92,0-4.92-4.92v-83.61C241.55,2014.93,243.19,2013.29,246.06,2013.29Z" transform="translate(-241.14 -1716.13)" style="fill:#231f20"/><path d="M855.7,2012.05h443.23q4.92.62,4.92,4.92v81.77c0,3.28-1.64,4.9-4.92,4.9H855.7c-3.28,0-4.92-1.62-4.92-4.9V2017Q851.38,2012.05,855.7,2012.05Zm0,392.83h443.23q4.92.61,4.92,4.3V2494q0,4.3-4.92,4.3H855.7q-4.92,0-4.92-4.3v-84.84C851.18,2406.32,852.82,2404.88,855.7,2404.88Zm0,394.66h443.23q4.92.63,4.92,4.92v84.22q0,4.92-4.92,4.92H855.7q-4.92,0-4.92-4.92v-84.22Q851.38,2799.54,855.7,2799.54Z" transform="translate(-241.14 -1716.13)" style="fill:#231f20"/><path d="M1699.55,2011.44q242.82,0,309.83,163.52,19.66,59.63,19.67,112.5,0,182.58-175.81,242.83,0,2.46-33.2,17.2l204.09,341.19v4.92H1915.94q-9.23-6.75-166-285.86l-81.77-142,4.93-2.47h9.82q252.06,0,252-175.81,0-109.41-108.19-165.36-69.46-19.67-163.53-19.67-113.71,2.46-151.22,2.45l-2.47-4.92v-79.3q.62-4.92,4.93-4.92Q1527.4,2015.74,1699.55,2011.44Z" transform="translate(-241.14 -1716.13)" style="fill:#231f20"/><path d="M3116,2011.44h85.46q4.92.61,4.92,4.91v434q0,175.83,40.56,223.77,72.54,129.09,238.53,129.09,174,0,250.2-159.83,24-62.68,24-164.75V2016.35q.62-4.9,4.92-4.91h83q4.92.61,4.92,4.91v483.81q0,274.17-226.22,369.47-68.25,24-129.11,24h-25.81q-216.41,0-324.59-205.33-35.67-71.3-35.66-228.69V2016.35Q3111.68,2011.45,3116,2011.44Z" transform="translate(-241.14 -1716.13)" style="fill:#231f20"/><path d="M4354.46,2011.44l2.47,4.91v60.86q0,4.3-65.17,16-78.09,25.21-107.58,81.77-16.59,34.42-16.59,58.4v6.77q0,130.3,233.59,151.83,138.94,19.08,214.55,53.48,116.82,62.11,116.81,189.35v11.68q0,170.91-198.56,228.69a530.1,530.1,0,0,1-137.7,18.44q-243.48,0-333.21-149.39-4.31,0-4.92-11.67v-2.46q3.07,0,70.1-35,102.65,124.17,249.57,124.17H4408q130.3,0,201-77.46,35-47.31,35.05-100.2,0-118.64-168.44-158.61-223.17-30.72-286.46-65.15-107.58-59-107.58-167.83v-28.28q0-111.27,132.78-177Q4266.56,2021.29,4354.46,2011.44Z" transform="translate(-241.14 -1716.13)" style="fill:#231f20"/><polyline points="1989.6 630.26 2837.32 0 2203.25 843.14" style="fill:#05f"/><polyline points="2665.56 844.61 1817.84 1474.87 2451.91 631.73" style="fill:#0092ff"/></svg>